<svg width="678" height="443" viewBox="0 0 678 443" fill="none" xmlns="http://www.w3.org/2000/svg">
<path d="M443.307 221.5C443.307 142.232 401.672 72.6923 339 33.5634C357.194 22.1675 376.96 13.4971 397.67 7.82864C359.257 -2.64731 318.736 -2.64731 280.323 7.82864C244.11 -2.02976 205.993 -2.60255 169.5 6.16328C72.244 29.5993 0 117.123 0 221.5C0 325.877 72.244 413.401 169.5 436.837C205.996 445.593 244.112 445.011 280.323 435.143C318.736 445.619 359.257 445.619 397.67 435.143C376.962 429.483 357.195 420.823 339 409.437C401.672 370.308 443.307 300.768 443.307 221.5ZM234.693 221.5C234.612 169.25 253.094 118.668 286.847 78.763C320.528 118.709 339 169.264 339 221.5C339 273.736 320.528 324.291 286.847 364.237C253.094 324.332 234.612 273.75 234.693 221.5Z" fill="white"/>
<path d="M456.347 -0.000288305C436.525 -0.0269179 416.79 2.60614 397.67 7.82833C491.614 33.5204 560.653 119.436 560.653 221.471C560.653 323.507 491.614 409.45 397.67 435.143C416.79 440.365 436.525 442.998 456.347 442.971C578.764 443 678 343.832 678 221.5C678 99.1669 578.764 -0.000288305 456.347 -0.000288305Z" fill="white"/>
</svg>
